<svg style="position: absolute; width: 0; height: 0;" width="0" height="0" version="1.1" xmlns="http://www.w3.org/2000/svg" xmlns:xlink="http://www.w3.org/1999/xlink">
<symbol fill="none" viewBox="0 0 21 15" id="hamburger-icon" xmlns="http://www.w3.org/2000/svg">
<path stroke="currentColor" stroke-linecap="round" stroke-linejoin="round" stroke-width="2.396" d="M1.875 1.75h17.25M1.875 7.5h17.25m-17.25 5.75h17.25"/>
</symbol>

<symbol fill="none" viewBox="0 0 105 121" id="E-vector" xmlns="http://www.w3.org/2000/svg">
<path fill="currentColor" d="M10.717 9.598C16.847 4.894 23.77 1.645 31.47.668c12.988-1.65 31.68 1.345 42.894 8.402 29.274 18.42 38.349 58.287 21.52 87.428-4.336 8.519-10.384 15.033-16.436 20.708-3.547 3.327-13.862 6.017-11.3-1.5 6.03-17.698 18.09-21.259 19.101-37.867.593-9.735 1.923-26.5-11.493-28.52-6.667-1.004-15.921 1.733-19.864 6.002-12.723 14.127-25.136 10.136-21.745 4.538 3.455-5.7 8.33-11.049 12.703-16.064 4.207-4.823 8.364-8.578 13.976-11.692 5.012-2.783-5.435-28.607-46.698-8.323-4.557 2.997-6.63 7.874-12.306 7.13-4.377-.574-.113-14.4 8.895-21.31Z"/>
</symbol>

<symbol fill="none" viewBox="0 0 14 14" id="email-icon" xmlns="http://www.w3.org/2000/svg">
<path fill="currentColor" d="M0 11.402V2.598c.01-.008.026-.014.026-.022.004-.07-.01-.142.028-.207-.024-.11.067-.197.055-.304.047-.063.049-.143.081-.212.031-.064.051-.134.084-.197.036-.067.068-.136.104-.203C.48 1.266.612 1.1.748.94.85.817.978.717 1.1.61c.041-.036.095-.057.139-.09.148-.117.312-.204.487-.274.039-.016.074-.04.114-.053.087-.03.176-.06.266-.082.091-.022.177-.075.277-.056.054-.044.119-.02.18-.029.012-.001.023-.017.034-.026h8.805c.007.01.014.026.022.026.07.004.142-.01.207.028.109-.022.198.066.305.056.205.087.417.157.613.27.185.106.353.234.514.37.119.101.217.227.32.344.038.042.064.092.097.138.11.152.202.315.273.488.018.043.04.084.055.128.03.088.055.177.082.266.027.091.07.18.055.278.054.048.008.115.03.166.025.06.024.12.024.18v8.528c0 .1-.003.206-.032.301-.019.062-.004.125-.028.18-.047.11-.065.227-.104.34a2.716 2.716 0 0 1-.17.393c-.109.205-.247.396-.402.57-.11.124-.24.23-.364.34-.041.036-.096.056-.14.09a1.964 1.964 0 0 1-.488.274c-.042.017-.08.043-.127.056-.176.049-.342.135-.531.135-.054.051-.125.006-.179.03-.065.028-.13.024-.195.024H2.917c-.12 0-.238.01-.359-.022a.952.952 0 0 0-.22-.03c-.076-.002-.14-.04-.21-.056-.216-.048-.434-.15-.667-.27-.19-.1-.354-.233-.517-.366-.124-.1-.223-.232-.33-.353-.037-.041-.061-.093-.094-.138a2.115 2.115 0 0 1-.274-.488c-.015-.039-.04-.074-.053-.114-.03-.088-.06-.177-.082-.267-.021-.092-.074-.178-.056-.278-.044-.055-.02-.12-.028-.18-.002-.012-.017-.023-.027-.035Zm6.996-4.193 3.212-3.213H3.784L6.996 7.21Zm-1.091.107a14113.586 14113.586 0 0 0-2.13 2.133l.01.01c.994.024 6.322.013 6.416-.01L8.08 7.33c.009 0 .003-.002 0 0L7.016 8.39c-.002.002-.008.002-.012.003h-.02L5.905 7.315Zm-.6-.603L2.83 4.24c-.002-.002-.008-.002-.012-.002h-.014c-.052.053-.043.12-.043.186v4.604c0 .018.002.037 0 .054a.171.171 0 0 0 .042.132l2.502-2.501h-.001Zm5.892 2.494c.03-.03.042-.075.042-.13-.003-.241-.001-.483-.001-.724V4.418c0-.064.01-.131-.049-.18-.092.065-2.427 2.4-2.483 2.478l2.491 2.49Z"/>
</symbol>

<symbol fill="none" viewBox="0 0 54 54" id="download-icon" xmlns="http://www.w3.org/2000/svg">
<path fill="currentColor" d="M17.77 17.22V3.738a2.92 2.92 0 0 1 1.212-2.417c.49-.365 1.086-.61 1.748-.61 4.165.007 8.322 0 12.487.007.997 0 1.837.44 2.41 1.22.364.491.602 1.093.602 1.755-.007 4.329 0 8.65 0 12.978v.558h.506c1.354 0 2.715.015 4.068 0 .848-.007 1.547.305 2.127.9.357.365.751.692.96 1.175.06.141.26.84.26.974v.543c.015.804-.29 1.488-.766 2.127-.454.603-.945 1.16-1.42 1.748-.506.618-.967 1.265-1.466 1.89-.394.49-.825.959-1.22 1.45-.357.446-.691.907-1.04 1.36-.194.246-.41.484-.61.722-.432.498-.841 1.019-1.235 1.554-.216.298-.498.55-.722.848-.357.469-.766.9-1.085 1.391-.142.216-.343.394-.499.603-.38.505-.818.966-1.212 1.457-.357.447-.684.915-1.041 1.361-.23.29-.499.55-.722.84-.357.47-.743.908-1.086 1.392-.297.416-.647.81-1.033 1.137-.357.298-.811.484-1.287.543-.186.023-.364.097-.55.104-.595 0-1.138-.2-1.651-.476-.625-.334-1.13-.818-1.54-1.405-.149-.216-.357-.372-.498-.603-.194-.312-.491-.557-.714-.847-.357-.469-.759-.9-1.086-1.391-.141-.216-.342-.394-.498-.603-.38-.505-.818-.96-1.22-1.457-.498-.625-.967-1.265-1.465-1.89-.201-.245-.424-.468-.618-.72-.401-.521-.833-1.02-1.227-1.555-.215-.298-.483-.558-.721-.84-.193-.224-.439-.432-.558-.692-.126-.283-.409-.417-.528-.7-.104-.245-.342-.438-.52-.654-.239-.283-.514-.543-.722-.84-.327-.469-.751-.863-1.049-1.354-.134-.223-.327-.409-.49-.61-.41-.483-.826-.96-1.228-1.45-.565-.684-.862-1.458-.87-2.358 0-.468.141-.907.127-1.368 0-.112.334-.81.453-.952.357-.446.744-.848 1.287-1.071.35-.141.699-.275 1.086-.275H17.8l-.03-.015Z"/>
<path fill="currentColor" d="M7.231 46.866h39.537v-.461c0-1.175.022-2.35-.008-3.525-.015-.484.09-.945.134-1.42.03-.32.164-.663.335-.938.216-.335.483-.677.803-.907.483-.343 1.041-.58 1.666-.566.126 0 .275-.119.387-.096.543.134 1.13.104 1.614.431.542.365 1.048.803 1.353 1.376.201.38.35.803.35 1.264-.015 2.841.022 5.682-.023 8.524-.014 1.078-.528 1.94-1.472 2.513-.513.313-1.071.44-1.666.44-15.53 0-31.058 0-46.587-.008-1.153 0-2.068-.543-2.655-1.525-.224-.38-.395-.826-.395-1.302 0-2.93-.022-5.86.015-8.798.008-.64.223-1.272.707-1.762.58-.588.714-.7 1.54-.982.11-.037.23-.052.349-.075.2-.03.424.067.61-.104.037-.037.163.023.245.045.067.015.134.067.193.052.417-.082.796.112 1.153.238.439.156.826.476 1.101.863.342.468.513 1.004.61 1.591.2 1.25.037 2.507.097 3.756.022.446 0 .9 0 1.361l.007.015Z"/>
</symbol>

<symbol fill="none" viewBox="0 0 18 13" id="correct-icon" xmlns="http://www.w3.org/2000/svg">
<path fill="currentColor" d="M17.579.352c.537.49.564 1.313.06 1.837l-10 10.4a1.35 1.35 0 0 1-.95.41 1.352 1.352 0 0 1-.965-.38L.39 7.42a1.277 1.277 0 0 1 0-1.838 1.358 1.358 0 0 1 1.885 0l4.36 4.25 9.058-9.42a1.358 1.358 0 0 1 1.885-.06Z"/>
</symbol>

<symbol fill="none" viewBox="0 0 16 17" id="close-icon" xmlns="http://www.w3.org/2000/svg">
<path fill="currentColor" d="M.57 15.532a1.946 1.946 0 0 1 0-2.752L12.678.672a1.946 1.946 0 1 1 2.752 2.751L3.322 15.532c-.76.76-1.992.76-2.752 0Z"/>
<path fill="currentColor" d="M15.43 15.531c-.76.76-1.992.76-2.752 0L.57 3.423A1.946 1.946 0 0 1 3.322.671L15.43 12.78c.76.76.76 1.992 0 2.752Z"/>
</symbol>

<symbol fill="none" viewBox="0 0 13 14" id="clock-icon" xmlns="http://www.w3.org/2000/svg">
<path fill="currentColor" d="M6.505.5h.078c.37.001.732.008 1.095.084l.075.015c.99.207 1.907.605 2.708 1.225l.068.052c.394.306.764.668 1.07 1.062l.059.071c.876 1.095 1.344 2.5 1.34 3.895l.002.223c.001.339-.03.665-.085.999l-.014.087a6.24 6.24 0 0 1-1.226 2.722l-.058.074c-.312.39-.661.758-1.055 1.065l-.072.058c-.808.648-1.799 1.066-2.812 1.258l-.062.012c-.76.149-1.636.121-2.392-.037l-.078-.017a6.316 6.316 0 0 1-2.578-1.198l-.075-.059a6.473 6.473 0 0 1-1.064-1.055l-.058-.072C.723 10.156.306 9.164.114 8.151L.1 8.089a6.036 6.036 0 0 1 .013-2.266l.015-.075c.207-.989.602-1.91 1.224-2.71l.052-.067A6.135 6.135 0 0 1 2.467 1.9l.071-.059C3.66.943 5.08.495 6.505.5Zm-.353 2.017a.675.675 0 0 0-.1.4v.053a25.982 25.982 0 0 0 0 .176v.127a94.102 94.102 0 0 0-.001.345v.215a313.668 313.668 0 0 0-.003 1.451v.602l-.001.359a42.211 42.211 0 0 0 0 .46c-.003.323.035.492.262.723l.06.059.063.064.208.207a129.223 129.223 0 0 0 .448.448 104.758 104.758 0 0 1 .65.651 60.718 60.718 0 0 1 .38.38l.059.06c.119.116.225.21.398.226a.558.558 0 0 0 .374-.192.495.495 0 0 0 .087-.367c-.053-.167-.164-.245-.306-.334C8.03 8.17 7.14 7.53 6.951 6.66c-.124-.649-.105-1.326-.084-1.984l.002-.07c.014-.425.032-.85.064-1.273l.004-.06A17.698 17.698 0 0 1 6.96 3c.016-.198.025-.359-.109-.519l-.045-.034-.045-.037c-.206-.135-.45-.055-.608.108Z"/>
</symbol>

<symbol fill="none" viewBox="0 0 18 14" id="category-icon" xmlns="http://www.w3.org/2000/svg">
<path fill="currentColor" d="m5.363 10.477.113-.001h.618l.39-.001a488.326 488.326 0 0 1 1.388-.001 1731.054 1731.054 0 0 1 1.765-.001h.193c.514 0 1.029 0 1.543-.002a837.727 837.727 0 0 1 2.475-.002 159.47 159.47 0 0 1 1.144 0 38.018 38.018 0 0 1 .542-.001c.421.003.74.138 1.056.415.157.167.279.353.365.565l.036.087c.097.355.08.82-.102 1.14a1.72 1.72 0 0 1-1.03.797c-.092.009-.092.009-.19.009h-.368l-.363.001h-.39a325.55 325.55 0 0 1-1.388.002H11.203l-1.544.002a837.737 837.737 0 0 1-1.585.002 377.022 377.022 0 0 0-1.647 0 71.072 71.072 0 0 0-.387.001h-.354a14.672 14.672 0 0 0-.188 0c-.42-.003-.74-.137-1.056-.415a1.816 1.816 0 0 1-.365-.564l-.036-.087c-.097-.355-.08-.82.102-1.141.26-.429.693-.805 1.22-.805Zm0-4.979h.369a89.195 89.195 0 0 1 .362-.001 390.66 390.66 0 0 1 1.156-.002h.622a1648.623 1648.623 0 0 1 1.958 0l1.543-.002a761.57 761.57 0 0 1 2.475-.003 191.365 191.365 0 0 1 1.144 0 38.018 38.018 0 0 1 .542-.001c.421.003.74.138 1.056.416.157.166.279.352.365.564l.036.087c.097.355.08.82-.102 1.141a1.72 1.72 0 0 1-1.03.797c-.092.008-.092.008-.19.008h-.236l-.132.001a89.179 89.179 0 0 1-.363 0l-.39.001a488.326 488.326 0 0 1-.766 0l-.622.001-1.765.001h-.192a826.94 826.94 0 0 0-1.544.001 837.727 837.727 0 0 1-2.475.003h-.758a62.975 62.975 0 0 0-.386 0h-.354a17.262 17.262 0 0 0-.188.001c-.42-.003-.74-.138-1.056-.416a1.818 1.818 0 0 1-.365-.564l-.036-.087c-.097-.355-.08-.82.102-1.14.26-.43.693-.805 1.22-.806Zm0-4.979h.731l.39-.002a325.55 325.55 0 0 1 1.388 0L9.637.514h.193l1.543-.001a837.727 837.727 0 0 1 2.475-.002A191.362 191.362 0 0 1 14.992.51a41.82 41.82 0 0 1 .542 0c.421.003.74.138 1.056.415.157.167.279.352.365.564l.036.088c.097.354.08.819-.102 1.14a1.72 1.72 0 0 1-1.03.797c-.092.008-.092.008-.19.008l-.113.001h-.255a89.179 89.179 0 0 1-.363 0l-.39.001a325.55 325.55 0 0 1-1.388.001l-1.765.001h-.192c-.515 0-1.03 0-1.544.002a837.727 837.727 0 0 1-2.475.002h-.758a62.975 62.975 0 0 0-.386 0h-.354a17.262 17.262 0 0 0-.188.001c-.42-.003-.74-.138-1.056-.415a1.817 1.817 0 0 1-.365-.565l-.036-.087c-.097-.354-.08-.82.102-1.14.26-.43.693-.805 1.22-.806ZM2.218 10.618c.337.204.581.464.73.83l.037.087c.096.354.08.82-.103 1.14-.204.337-.464.581-.83.73l-.087.037c-.354.096-.82.08-1.14-.103a1.691 1.691 0 0 1-.73-.83l-.037-.087c-.096-.354-.08-.819.103-1.14.204-.337.463-.581.83-.73l.087-.036c.354-.097.819-.08 1.14.102Zm0-4.979c.337.204.581.464.73.83l.037.087c.096.355.08.82-.103 1.141-.204.337-.464.58-.83.73l-.087.036c-.354.097-.82.08-1.14-.102a1.692 1.692 0 0 1-.73-.83l-.037-.087c-.096-.355-.08-.82.103-1.14.204-.337.463-.582.83-.731l.087-.036c.354-.097.819-.08 1.14.102Zm0-4.978c.337.204.581.463.73.83l.037.087c.096.354.08.819-.103 1.14-.204.337-.464.581-.83.73l-.087.037c-.354.096-.82.08-1.14-.103a1.692 1.692 0 0 1-.73-.83l-.037-.087c-.096-.354-.08-.82.103-1.14C.364.987.624.743.99.594l.087-.037c.354-.096.819-.08 1.14.102Z"/>
</symbol>

<symbol fill="none" viewBox="0 0 15 16" id="calendar-icon" xmlns="http://www.w3.org/2000/svg">
<path fill="currentColor" d="M13.164 15.684H1.29c-.009-.01-.016-.03-.025-.03a1.104 1.104 0 0 1-.546-.203 1.563 1.563 0 0 1-.41-.373c-.185-.247-.306-.52-.306-.825C-.002 11.494 0 8.737 0 5.979c0-.04.003-.082.005-.116h14.448v.164l-.001 7.967c0 .152.012.303-.026.457-.025.103-.05.205-.093.301-.14.31-.27.473-.535.662-.18.129-.38.23-.61.24-.01 0-.017.02-.026.03ZM3.603 9.995c.16 0 .322-.004.483.002a.525.525 0 0 0 .196-.035c.103-.036.21-.081.262-.177a.692.692 0 0 0 .104-.345 30.491 30.491 0 0 1 0-.952.569.569 0 0 0-.034-.197c-.036-.103-.082-.21-.177-.262a.687.687 0 0 0-.344-.105 30.412 30.412 0 0 1-.951 0 .566.566 0 0 0-.196.034c-.098.034-.197.076-.252.166a.621.621 0 0 0-.113.324c0 .345-.004.69.002 1.034.002.135.06.255.15.356a.63.63 0 0 0 .37.157h.5Zm3.62 0c.157 0 .313-.004.468.002a.55.55 0 0 0 .212-.036c.096-.035.199-.078.25-.17a.688.688 0 0 0 .108-.343 33.422 33.422 0 0 1 0-.953.597.597 0 0 0-.035-.212c-.035-.097-.078-.2-.17-.25a.69.69 0 0 0-.342-.11c-.317.006-.634.005-.95 0a.67.67 0 0 0-.213.036.525.525 0 0 0-.356.481c-.002.35 0 .7 0 1.05 0 .077.08.275.134.332a.55.55 0 0 0 .38.17c.171.01.343.003.515.003Zm4.65-1.026v-.484a.68.68 0 0 0-.028-.182c-.068-.248-.267-.368-.512-.375-.322-.01-.644-.002-.967-.002a.66.66 0 0 0-.18.028c-.248.07-.368.269-.375.513-.01.323 0 .646-.004.969-.001.07.013.134.035.196.035.097.074.2.167.251.095.053.19.113.308.112.35 0 .698.003 1.047-.002a.515.515 0 0 0 .343-.141.532.532 0 0 0 .165-.382c.007-.167.002-.334.002-.5Zm-7.227 3.628v-.484a.524.524 0 0 0-.03-.197c-.04-.103-.08-.21-.176-.263a.67.67 0 0 0-.342-.109c-.317.007-.634.003-.951.002a.536.536 0 0 0-.197.031c-.102.04-.21.08-.263.176a.673.673 0 0 0-.107.343c.006.317.002.635.001.953a.53.53 0 0 0 .031.197c.038.096.075.196.164.253a.6.6 0 0 0 .322.117l1.031-.001c.138-.001.26-.058.356-.15a.519.519 0 0 0 .16-.367c.006-.167.002-.334.002-.5Zm2.565 1.018c.162 0 .323-.001.484.001a.528.528 0 0 0 .197-.031c.102-.04.21-.08.263-.176a.679.679 0 0 0 .107-.343c-.006-.318-.002-.635-.001-.953a.547.547 0 0 0-.032-.197c-.038-.103-.08-.21-.175-.263a.67.67 0 0 0-.343-.108c-.316.006-.633.002-.95.001a.529.529 0 0 0-.197.032c-.097.037-.196.075-.253.164a.6.6 0 0 0-.116.323l.001 1.033c0 .138.058.26.149.356a.515.515 0 0 0 .367.16c.166.005.333.002.5.002ZM5.68 1.208h3.097c0 .343-.006.682.002 1.02.006.3.073.58.258.862.159.242.372.43.639.547.138.06.277.115.434.125.08.005.161.026.245.029.105.003.204-.033.308-.041a.786.786 0 0 0 .267-.091c.09-.044.18-.087.263-.143.23-.158.409-.362.523-.62a1.85 1.85 0 0 0 .132-.431c.032-.18.02-.358.025-.537.005-.178 0-.356 0-.533v-.192H12.967c.244 0 .473.06.682.182.177.103.339.222.468.392.133.173.23.356.289.56.027.098.05.199.05.304-.002.722-.001 1.443-.001 2.165-.004.004-.006.009-.01.012-.004.003-.01.006-.014.006H0V2.692c0-.255.07-.492.196-.71.12-.207.269-.39.476-.521a1.821 1.821 0 0 1 .462-.21c.087-.026.18-.044.27-.045.388-.005.775-.003 1.177-.003v.124c0 .285.005.57-.001.856-.004.173.029.343.073.505.036.136.102.268.184.392.165.248.378.435.646.559.136.063.278.113.434.124.075.005.151.03.229.026.308-.018.598-.096.854-.274.23-.16.409-.363.523-.62.062-.138.102-.28.13-.432.046-.261.014-.52.025-.78.006-.155.001-.31.001-.474v-.001Z"/>
<path fill="currentColor" d="M4.646 2.382c-.15.244-.124.22-.372.372h-.28c-.087-.049-.17-.088-.235-.158a.49.49 0 0 1-.147-.36c.006-.393.002-.786.002-1.16.076-.19.2-.315.39-.39h.262c.088.047.17.087.235.157a.49.49 0 0 1 .147.36c-.006.393-.002.786-.002 1.179ZM9.81 1.077a.663.663 0 0 1 .39-.392h.262c.087.05.17.088.234.158.096.104.15.214.148.36-.006.393-.002.786-.002 1.16a.664.664 0 0 1-.39.391h-.262c-.087-.05-.17-.087-.234-.158a.493.493 0 0 1-.148-.36c.006-.393.002-.785.002-1.16Z"/>
</symbol>

<symbol fill="none" viewBox="0 0 10 16" id="arrow-icon" xmlns="http://www.w3.org/2000/svg">
<path fill="currentColor" d="M5.744 7.973 3.82 6.016C2.74 4.916 1.654 3.823.58 2.718-.13 1.987-.188 1.088.41.456c.612-.645 1.538-.608 2.264.128A1323.783 1323.783 0 0 1 8.81 6.837c.76.78.757 1.548 0 2.324a1604.06 1604.06 0 0 1-6.136 6.254c-.725.735-1.65.776-2.263.13-.6-.631-.543-1.532.168-2.261 1.62-1.661 3.249-3.311 4.873-4.967.083-.084.153-.18.294-.344h-.002Z"/>
</symbol>

<symbol fill="none" viewBox="0 0 407 357" id="s-vector" xmlns="http://www.w3.org/2000/svg">
<path fill="currentColor" d="M74.099 3.058A14.78 14.78 0 0 0 63.714 8.99c-9.862 13.349-17.596 25.86 6.09 31.572 17.543 4.23 35.978-6.744 53.609-4.887 5.789.607 8.557 7.484 4.767 11.906C84.253 98.847 19.6 141.15 3.544 209.393-20.139 323.431 99.28 347.392 135.556 351.428c181.523 37.657 281.802-134.312 269.823-200.337-2.326-12.821-12.622-20.91-17.956-10.517-10.493 20.431-33.292 144.645-184.566 166.17-34.434 4.901-92.496.14-122.62-19.081-26.689-17.026-29.67-64.114-21.653-91.974 10.776-37.462 51.057-64.269 75.978-92.041 16.169-18.02 71.123-64.941 42.27-90.11C155.561-4.999 103.631.018 74.099 3.058Z"/>
</symbol>

<symbol xml:space="preserve" viewBox="0 0 2409.7 614.7" id="surge-logo" xmlns="http://www.w3.org/2000/svg">
  <path fill="currentColor" d="M2335.3 533.7c-250 22.9-336.2-346.3-121-457.7 31.3-20.4 64.6-30.7 96.2-38.2 131.1 13.7-97.3 79.6-103.1 117.9-143.2 220.3 190.1 79.1 145.9 163.1-45.3 21.3-94.1 41.9-144.9 42.3-22.5-.3-37.1 107.1 142.8 118.2 80-27.1 71.2 37.2-15.9 54.4zM1100.8 296.5C1047.2-74.2 1549.1-3.8 1413.7 245c-236 137.8 80.7 236.2 171.2 337 7 73.3-120.8 6.5-150-21.1-108-61.4-269-190.3-130.9-308.1 89.1-33.5 76.7-122.7-11.3-143.8-168-8.1-112.8 174.4-109.7 269.8 7 316.1-77.4 83.8-82.2-82.3zM393.4.5c24.8-.4 60.1 30.7 22.7 49.6-16.9 17.3-97.1-1-77.8 35.4C1051.7 376.9 110.8 791.6.4 350.1c-2.5-105.3 200.2 311.1 511.3 44C656.2 180.5-37.4 108.3 393.4.5z"/>
  <path fill="currentColor" d="M2009.6 348.6c7.6 97.7-77.2 152.6-153.8 178.2-287.7 101.6-405.9-371.2-167.5-483.2 118.5-23.3-25 48.1-35.1 135.2-19.8 84.4-25.3 188 41.3 247.4 280.1 156.3 302.7-265.4 76.2-76-18.6 13.1-16.5 17.9-20.1-14.2-2-163.5 245-144 259 12.6zm-1333.2-175c-13.6-128.2 89.9-213.4 72.7-29.8-4.2 98.3-17.4 247.6 65.6 313.3 181.6 16.1 150.7-376.6 187-388.6C1166.9 436 647.6 831.3 676.4 173.6z"/>
</symbol>

<symbol fill="none" viewBox="0 0 211 184" id="surge-alternative-logo" xmlns="http://www.w3.org/2000/svg">
<path fill="currentColor" d="M16.601 96.963c2.343-6.833 6.176-25.059 13.741-24.983 9.405.092 3.65 15.977 1.775 22.361-3.597 12.253-7.19 24.666-7.726 37.45-.363 8.652.486 22.514 6.418 27.082 6.584 5.071 16.706-3.027 23.202-8.054 22.685-17.55 21.485-59.57 30.729-60.002 9.934-.464-2.344 36.205-8.028 47.188-8.5 17.362-14.35 24.387-26.09 31.961-35.933 19.493-39.984-20.396-40.389-37.537 0 0 2.34-23.723 6.369-35.468v.002Z"/>
<path fill="currentColor" d="M106.434 4.317C89.459 2.765 79.085 6.09 68.93 14.753 58.988 23.226 47.18 39.255 43.607 50.7c-7.25 23.226-8.336 54.336 10.452 74.597 18.677 20.139 52.647 30.817 81.508 27.17 29.106-3.68 53.767-9.774 65.189-35.683 4.494-10.198 5.728-21.2-9.574-11.491-7.647 8.741-9.425 14.68-36.247 19.922-28.566 4.574-63.178 3.976-81.462-19.238-15.827-20.1-10.356-53.89 9.509-70.567 23.772-19.956 45.874 15.466 31.837 33.442-4.053 5.189-10.217 8.867-14.325 13.837-4.794 5.804-6.32 5.02 4.282 6.934 17.434 3.147 28.949-6.355 36.255-19.505 14.443-26.005-2.491-58.318-34.6-65.797v-.004h.003Z"/>
</symbol>

<symbol fill="none" viewBox="0 0 14 14" id="search-icon" xmlns="http://www.w3.org/2000/svg">
<path fill="currentColor" d="M5.99.503h.076C7.105.495 7.105.495 7.544.612l.081.02c.887.234 1.671.64 2.346 1.264.06.055.12.105.182.154.124.108.227.226.331.353l.079.095c.69.856 1.168 1.97 1.18 3.078a16.85 16.85 0 0 1 .001.075c.012 1.074-.146 2.149-.755 3.066-.073.096-.073.096-.059.175.033.08.071.124.133.185l.068.068.076.074.08.079.17.169.27.267.623.618.615.61.266.262.164.163.074.073c.25.25.434.506.442.87-.001.34-.053.613-.293.87-.278.25-.573.31-.938.299-.578-.043-.99-.626-1.372-1.014a197.306 197.306 0 0 1-.928-.939 108.89 108.89 0 0 0-.422-.427 36.572 36.572 0 0 1-.16-.162 30.007 30.007 0 0 0-.224-.226l-.066-.068c-.113-.12-.113-.12-.266-.148-.1.045-.193.098-.287.156-.439.26-.917.43-1.411.553l-.129.033c-.76.17-1.691.14-2.44-.066l-.098-.027A5.276 5.276 0 0 1 2.68 9.937a2.902 2.902 0 0 0-.177-.151c-.904-.783-1.465-2.09-1.582-3.26a7.813 7.813 0 0 1-.007-.27L.912 6.18C.904 5.14.904 5.14 1.02 4.7l.02-.08c.234-.888.64-1.672 1.265-2.347.054-.06.104-.119.153-.181C3.286 1.139 4.741.512 5.99.503ZM3.725 3.181l-.063.054c-.483.448-.81 1.075-.985 1.703l-.033.111a3.703 3.703 0 0 0 .033 1.85l.035.124c.293.966.982 1.76 1.863 2.242a3.81 3.81 0 0 0 2.85.277c.562-.175 1.064-.502 1.505-.886l.063-.054c.483-.45.81-1.076.984-1.704l.033-.111a3.703 3.703 0 0 0-.033-1.849l-.034-.125c-.292-.96-.98-1.764-1.858-2.24-1.474-.774-3.134-.46-4.36.607Z"/>
</symbol>

<symbol fill="none" viewBox="0 0 17 16" id="plus-icon" xmlns="http://www.w3.org/2000/svg">
<circle cx="8.91" cy="8" r="7.423" stroke="currentColor" stroke-width="1.154"/>
<rect width="8.308" height="1.538" x="7.987" y="12" fill="currentColor" rx=".769" transform="rotate(-90 7.987 12)"/>
<rect width="8.308" height="1.538" x="12.91" y="8.615" fill="currentColor" rx=".769" transform="rotate(180 12.91 8.615)"/>
</symbol>

<symbol fill="none" viewBox="0 0 14 14" id="phone-icon" xmlns="http://www.w3.org/2000/svg">
<path fill="currentColor" d="M11.626 13.974H2.347c-.007-.01-.015-.026-.021-.026-.12.006-.232-.033-.347-.053-.139-.025-.268-.079-.397-.13a2.233 2.233 0 0 1-.63-.386 2.518 2.518 0 0 1-.495-.542 2.542 2.542 0 0 1-.28-.524 2.761 2.761 0 0 1-.127-.453 1.746 1.746 0 0 1-.024-.207c0-.007-.017-.014-.026-.021V2.37c.01-.007.026-.014.026-.022a1.666 1.666 0 0 1 .023-.207c.016-.089.042-.175.062-.262a1.349 1.349 0 0 1 .087-.263c.107-.234.239-.455.407-.647C.73.83.86.692 1.014.58c.156-.113.31-.227.487-.305.108-.049.214-.108.327-.132.1-.022.196-.072.303-.06.06-.045.136-.005.192-.03.07-.032.14-.023.208-.023h8.704c.105 0 .211-.013.314.003.102.016.204.026.306.046.088.018.175.042.262.062a1.354 1.354 0 0 1 .264.087c.234.106.456.238.648.406.141.123.28.253.391.408.114.156.227.31.306.487.048.107.108.213.132.325.022.1.072.196.06.304.045.059.005.135.03.19.033.071.023.14.023.209v8.81c0 .1 0 .2-.02.302-.022.11-.04.22-.059.331-.024.14-.078.268-.128.397a2.24 2.24 0 0 1-.388.628c-.159.185-.333.36-.543.494a2.554 2.554 0 0 1-.525.28c-.149.052-.297.1-.453.126a1.749 1.749 0 0 1-.208.024c-.008 0-.014.017-.022.026v-.001Zm-.012-4.44c-.048-.027-.09-.079-.143-.12-.146-.114-.31-.196-.47-.285-.246-.138-.49-.283-.743-.41-.217-.109-.415-.248-.622-.372-.154-.092-.351-.094-.485.05-.122.13-.26.245-.369.39-.082.11-.184.206-.277.308-.013.014-.03.024-.038.04a.876.876 0 0 1-.338.308c-.162.04-.288-.027-.4-.088-.174-.096-.345-.203-.516-.306a9.195 9.195 0 0 1-.608-.403 4.343 4.343 0 0 1-.477-.395c-.155-.15-.315-.294-.449-.465a6.749 6.749 0 0 0-.27-.324c-.127-.144-.223-.308-.333-.462-.089-.126-.161-.26-.243-.39a4.212 4.212 0 0 1-.268-.488c-.02-.042-.025-.09-.033-.136-.024-.117.043-.204.113-.278.12-.126.247-.249.384-.356.17-.133.344-.26.495-.416a.84.84 0 0 0 .154-.223.347.347 0 0 0-.016-.324c-.087-.166-.203-.313-.292-.478-.078-.145-.159-.289-.238-.434-.074-.137-.151-.272-.225-.41a3.87 3.87 0 0 0-.212-.348c-.08-.118-.144-.249-.26-.345-.04-.014-.093.016-.136-.025-.014-.014-.063-.015-.077-.002-.036.033-.075.022-.114.025a40.231 40.231 0 0 0-.288.028c-.008 0-.015.007-.023.01-.116.05-.242.068-.36.121-.11.05-.22.093-.304.187-.049.054-.105.1-.153.155-.08.09-.157.185-.212.293-.111.22-.228.44-.3.68-.022.072-.045.144-.065.217-.016.062-.022.127-.042.187-.034.106.014.22-.04.324a.064.064 0 0 0 0 .054c.046.08.023.165.026.248.002.079.046.152.028.233.048.082.053.178.077.267a4.98 4.98 0 0 0 .158.48c.069.18.13.363.202.543.048.12.096.242.152.359.084.174.173.346.266.516.092.169.2.326.303.487.072.113.162.214.232.327.065.104.146.194.221.289.063.08.142.148.199.232.038.056.084.101.128.15.046.053.085.113.136.162.244.232.467.489.728.706.136.112.263.236.404.344.138.107.267.227.412.325.13.088.258.182.395.262.157.093.31.194.471.278.322.166.652.313.997.426.131.043.254.112.387.15.203.06.397.154.613.166.034.047.083.02.125.028.042.008.083.022.125.026.088.01.178-.017.262.027.015.008.043.009.053 0 .048-.04.103-.02.154-.026.087-.008.18-.004.26-.032.049-.017.097-.006.14-.024.174-.073.36-.116.53-.2.132-.065.266-.13.394-.203.176-.1.309-.252.45-.394.017-.017.027-.043.039-.065.07-.135.133-.272.161-.425.012-.064.055-.124.051-.195-.003-.07.045-.133.03-.207a.172.172 0 0 1 .02-.127c.017-.027-.002-.076-.008-.115-.005-.03-.014-.058-.026-.11l-.002-.002Z"/>
</symbol>

<symbol fill="none" viewBox="0 0 19 16" id="participants-icon" xmlns="http://www.w3.org/2000/svg">
<path fill="currentColor" d="M8.575 6.897H8.999l.227-.001h.476a204.425 204.425 0 0 0 1.3-.002c.902-.003 1.714.098 2.387.76l.093.094.072.07c.554.575.638 1.36.639 2.12v.16l.001.433v.271a800.137 800.137 0 0 1 .003 1.826 238.96 238.96 0 0 1 .003 1.21 66.773 66.773 0 0 1 0 .58c.004.607.004.607-.2.817-.202.122-.384.138-.614.137h-.398l-.22.001h-.596a275.339 275.339 0 0 0-.497 0l-1.175.001a543.351 543.351 0 0 0-1.21.001 450.965 450.965 0 0 1-1.041 0 257.177 257.177 0 0 0-1.206.001H6.83a35.727 35.727 0 0 1-.293 0h-.085c-.225-.001-.43-.038-.597-.2a.952.952 0 0 1-.136-.536 1042.855 1042.855 0 0 1 0-.138v-.15a114.987 114.987 0 0 1 0-.591v-.453a386.791 386.791 0 0 1 0-1.64 380.538 380.538 0 0 1 0-.755V9.884c-.003-.833.162-1.575.76-2.183l.095-.094.069-.071c.517-.498 1.24-.64 1.933-.639ZM12.238.951c.646.667.878 1.512.866 2.42a2.889 2.889 0 0 1-.75 1.84l-.052.065c-.458.578-1.235.924-1.952 1.019-.813.086-1.633-.107-2.288-.609a19.007 19.007 0 0 1-.15-.123l-.064-.05c-.522-.419-.938-1.181-1.021-1.847-.082-.916.077-1.768.666-2.495a5.971 5.971 0 0 1 .243-.262l.082-.082c1.267-1.214 3.204-1.022 4.42.124Zm2.725 7.326a96.494 96.494 0 0 1 .967-.01c.579-.01 1.124 0 1.648.277l.07.036a2.645 2.645 0 0 1 1.228 1.46l.028.077c.114.381.094.773.093 1.168v.74c0 .213 0 .426.002.639a90.447 90.447 0 0 1 0 .73c.004.596-.043 1.046-.46 1.504l-.086.077-.075.07c-.449.313-.941.329-1.47.325a111.524 111.524 0 0 1-.566-.002l-.42-.002a279.278 279.278 0 0 1-.818-.003l.017-.125a3.4 3.4 0 0 0 .023-.414v-.313l.001-.174.001-.47v-.295a710.096 710.096 0 0 0 .003-1.985 282.359 282.359 0 0 0 .003-1.313 79.088 79.088 0 0 0 0-.63 4.312 4.312 0 0 0-.118-1.05l-.042-.191-.029-.126ZM4.105 8.268l.247.002.6.007-.03.122-.04.162-.019.08-.019.08-.017.072a2.88 2.88 0 0 0-.057.584V10.838a1157.87 1157.87 0 0 0 0 2.623V14.954c.005.138.021.271.04.409-.3.001-.601.003-.902.003a146.453 146.453 0 0 0-.419.002l-.405.002a26.226 26.226 0 0 0-.154 0c-.407.003-.8-.003-1.167-.197l-.121-.062c-.35-.208-.58-.551-.693-.942a1.059 1.059 0 0 1-.022-.227v-.19a114.329 114.329 0 0 1-.003-.448v-.119a320.002 320.002 0 0 1-.002-.624 135.327 135.327 0 0 0-.003-.642 91.155 91.155 0 0 1-.001-.496 38.22 38.22 0 0 0-.002-.236c-.006-.848.163-1.564.772-2.188.694-.659 1.505-.745 2.417-.73ZM16.842 3.34c.52.398.83.917.963 1.552a2.554 2.554 0 0 1-.524 1.939c-.401.457-.97.77-1.582.818-.644.034-1.262-.105-1.76-.535-.493-.454-.808-1.02-.852-1.697-.01-.685.21-1.317.686-1.819a2.454 2.454 0 0 1 3.07-.257ZM4.34 2.913a2.445 2.445 0 0 1 1.67.573c.477.45.774 1.005.818 1.665.019.722-.23 1.322-.72 1.846-.498.478-1.12.667-1.797.655-.605-.024-1.148-.295-1.58-.715-.456-.501-.663-1.11-.645-1.782.036-.692.365-1.252.867-1.71.397-.33.877-.501 1.387-.532Z"/>
</symbol>

<symbol fill="none" viewBox="0 0 13 18" id="location-icon" xmlns="http://www.w3.org/2000/svg">
<path fill="currentColor" d="m6.994 16.926-.261.133a774.066 774.066 0 0 1-.279-.138c-.018-.035-.033-.08-.063-.114-.191-.215-.402-.415-.574-.643-.203-.269-.44-.51-.63-.79-.175-.256-.399-.479-.594-.723a13.65 13.65 0 0 1-.436-.58 66.6 66.6 0 0 0-.523-.72 29.888 29.888 0 0 1-.764-1.09c-.275-.412-.55-.824-.798-1.252-.24-.415-.45-.847-.665-1.276-.153-.307-.307-.615-.43-.935A9.193 9.193 0 0 1 .64 7.764a5.066 5.066 0 0 1-.172-1.51c.005-.122.002-.24.054-.36.047-.108-.01-.23.051-.36.053-.114.035-.271.065-.41.061-.287.134-.568.24-.84a8.27 8.27 0 0 1 .404-.918 8.44 8.44 0 0 1 .608-.948c.262-.364.59-.666.917-.964a4.27 4.27 0 0 1 .877-.63c.161-.085.312-.188.476-.264A8.156 8.156 0 0 1 5.203.179C5.811-.01 6.435-.007 7.062.004c.682.012 1.322.193 1.956.436.456.175.853.444 1.263.694.16.097.294.24.432.37.15.14.284.297.438.432.316.278.553.622.778.969.196.301.341.638.502.962.137.276.219.574.322.863.076.214.067.458.13.68.045.16.026.32.059.474.03.149.057.294.053.446-.006.166.018.334-.006.497-.041.292-.077.584-.149.874-.086.345-.214.675-.32 1.012-.075.24-.184.47-.291.698-.151.32-.305.637-.477.945-.248.446-.502.89-.783 1.316-.243.368-.48.74-.727 1.105-.166.245-.34.486-.515.724-.239.322-.483.64-.724.96-.242.32-.478.643-.726.958-.142.18-.306.34-.452.516-.144.173-.272.358-.417.53-.094.11-.207.207-.308.312-.037.04-.063.088-.106.148v.001Zm-.25-8.202c.054-.013.126-.047.195-.043.335.02.633-.093.928-.231a2.61 2.61 0 0 0 1.042-.864c.331-.465.466-.988.513-1.543.013-.143-.026-.277-.054-.416a3.47 3.47 0 0 0-.208-.704c-.154-.352-.394-.63-.662-.897-.189-.188-.42-.317-.643-.431a2.567 2.567 0 0 0-.861-.242 2.447 2.447 0 0 0-1.004.108 2.818 2.818 0 0 0-1.39.942c-.2.245-.331.542-.432.842-.076.226-.102.468-.13.707-.02.164.049.316.054.473.006.152.047.295.094.432.193.568.522 1.045 1.027 1.38.272.182.556.346.893.383.115.11.257.036.385.058l.253.046Z"/>
</symbol>

<symbol fill="none" viewBox="0 0 573 538" id="cycling-icon" xmlns="http://www.w3.org/2000/svg">
<path fill="currentColor" d="M481 374c4 4 12 6 13-1 6 5 2 6-1 11 3 1 7-2 8 0 4 2 4 10 6 14-1 12-10 19-17 27 12 2 25-18 18-28l2-4c4 16-3 37-22 36-15 0-23-11-22-25 0-5 1-8 3-13 1-2 6-6 6-9 0-4-11-12-14-15-13-15-19-32-25-50-11 18-21 40-23 61-3 21 2 39 8 59 5 19 14 37 29 51 16 15 32 19 53 16 16-3 34-17 42-31l4-11 7-10c5-9 6-19 8-29 3-20 4-40-2-60-5-15-18-44-35-48 3 4 8 7 7 13a82 82 0 0 0-41-29l1-1 32 8c10 2 15 9 21 17 14 19 20 40 26 63v8c-5 12-4 28-6 41-3 14-9 25-17 37-15 21-35 41-63 42-57 1-95-69-83-119 1 8 0 21 5 28-2 14 6 31 13 43 5-5-2-15-4-20-1-3-5-26-9-23 2-8-1-16-1-24l1-24c1-8 2-17 5-24s9-13 9-21h-2c-1-1 13-21 14-22l-6-2c3-6 8-8-1-7l-10 2c-5 0-7-2-12 2-6 4-10 16-15 23-6 10-13 18-21 27-15 16-31 30-47 45-16 13-15 32-10 51 7 21 16 30 39 33 9 1 14-6 22-2 6 2 13 9 16 15 5 8 1 5-1 10-5 9-11 11-21 16-8 3-17 9-26 10-9 2-17-1-25 7h-1c-4-4-7 0-10-2l-4-7c-3-2-6-1-8-4-2-2-4-10-5-12l-25-60c-5 5-7-9-8-12-3-9-4-17-5-26-2-15 1-30 0-45s-8-29-17-41c-2-3-8-13-12-13-7 0-3 6-3 10-9-1-18 19-19 26-2 11 8 22 10 33l5 22c0 4 2 8 1 12 0 3-3 7-2 10 3 13 20 0 26 9-11 4-25-4-26 12 0 6 1 8-2 14l-9 18c-8 11-20 26-33 32-13 7-33 8-47 8-15 0-34-3-48-9-15-6-27-21-38-32a81 81 0 0 1-25-40c-1-6-2-14-5-20l-6-15v-1c4-13 1-28 4-41 4-13 11-26 18-37 13-22 35-39 61-40 30-2 55 5 79 23 7 5 20 21 30 21 9 0 15-17 13-24-2-10-14-14-20-21-9-11-20-24-25-37-6-13-8-30-7-45 2-14 10-27 16-40 25-50 73-80 125-97l50-13c14-3 28-2 43-1 3 0 15 0 9-8-3-4-2 0-7 0-3 1-5-1-7-1l-8 1c-6-1-3-1-6-7-2 4-10 3-15 3 6-6 14-4 19-9 7-6 9-14 17-20 12-9 33-12 48-9 8 2 14 5 20 11 6 5 7 8 9 16 1 7 1 15-2 22l-4 9-2 9c-2 8-7 13-6 20 1 9 6 16 6 25 0 8-3 17-2 25l6 22c4 17 12 32 24 45 5 5 14 19 23 14l1-4 11-7c9 14 2 28-1 43v10c-2 2-2-1-3-1-2 2-8 11-10 11-6 0-2-7-4-9-1-2-7-4-10-6-9-6-20-22-33-13-9 6-1 13-3 21-2 9-7 11-2 21 3 7 6 8 13 8 1 0 20-1 9 4-3 2-12-4-14 1-2 3 7 18 9 22 6 15 19 32 22 49-5-1-9-1-13 2 2-6 2-11 0-17l3 2c2-7-6-16-9-22-3-7-6-15-10-21-4-7-9-21-18-9-6 9 2 30 6 39 4 6 20 31 27 29Zm-371 9c-4-6-13 1-16 5-5 5-6 11-5 18-16-10 16-31 26-30 6 1 10 6 18 5 8-2 17-13 23-18l12-10c4-3 14-9 16-13 3-7-6-13-12-18-15-14-33-24-53-29-21-4-43-4-61 8-15 9-26 22-34 37a139 139 0 0 0-8 90c2 9 3 20 9 27 3-10-2-21-3-31-2-11-2-23-1-34 1-21 7-46 21-62 13-15 32-25 52-25 11 0 16 6 26 10 8 3 21 4 18 17-6-11-11-13-22-15-11-3-25-5-35-3-19 4-35 24-42 40-10 19-13 44-11 65 0 11 1 22 4 32 3 12 11 18 19 27l-1 1-8-5-1 1c14 11 32 29 49 33h10l10 4c9 4 19 4 29 3 20-1 38-11 51-27 9-10 25-32 18-46-7 9-7 26-20 31 4-9 19-29 6-33-7-2-16-2-23-3l-22-6c-7-2-14-4-22-2-7 1-12 5-19 5-9 0-23-8-21-19 3 3 8 14 13 13 6-2 3-6 2-10-1-9-2-28 8-33Zm95-250c-9 15-28 38-2 49 8 3 19 1 27 5l16 8v2c-9-3-17-6-25-7s-16 1-23-3c-17-7-14-22-8-36-5-1-20 33-21 38 0 1 2 3 1 5 0 2-4 6-5 8-2 5-3 12 0 18 0-5 0-6 2-10 4 8 2 19 4 29 3 10 7 20 13 29 12 16 29 29 45 42l17 17c11-1-2-11-4-13-5-5-17-13-20-20v-8c-1-4-6-3-4-8 9 6 15 13 23 22 4 5 11 16 18 15l12-8 12-3c3 0 6 2 7-1a131 131 0 0 0-38-64c-6-6-13-15-21-18-10-3-24-1-34-1l-1-1c9-5 19-1 28-3 6-1 6-3 13-2l7 1c2-2 4-2 5 0l5 6c4 4 11 16 18 17 0-4 4-5 6-9l-8 1c2-4 7-5 7-9 0-2-6-9-7-11 8 3 10 7 17 1 6-5 10-13 16-18l1 1-5 11 2 1c6-3 22-9 25-15 4-5 2-15 0-21-6 3-10 8-17 11-3 1-16 4-19 2-7-5 15-7 18-9 3-1 12-6 11-10-1-6-14-7-18-7-7 0-11 0-18-2s-12-3-20-3c4-11 11-3 17-8 4-3 2-18 2-23 2-21 12-33 25-49l-1-2c-19 10-32 27-50 38-9 6-19 10-29 14-9 4-19 5-26 12l1 1 3-2Zm179-10h1c7-9 21-22 21-36 0-4-5-17-8-20-3-4-6-1-10-2-8-2-9-7-16-7-8 0-15 2-22 3-14 2-26 4-37 14-10 9-18 21-22 34-3 11-3 32 8 39 5 2 12 1 16-1 7-3 4-3 8-7 1-2 3 0 4-2l1-5c2-6 2-12 8-16 1 4 3 9 7 9-4 2-7 2-7 7l4-2c-2 5-6 9-7 14l1 11 3 18c1 3 4 7 4 10l-5 6c-1 4 1 13 1 17 2 8 3 19 7 25l7 7 7 7c7 6 18 7 26 9 6 2 20 9 26 8 9-1 8-7 6 5l4-1c2 8 7 19 17 18s11-17 6-23c-5-5-11-4-17-6-6-1-13-4-18-7-13-6-25-13-35-23-5-5-9-8-7-14 0-2 2-3 3-5l-1-8c-3-16-2-31 1-48 2-12-2-22-8-33-7-9-18-13-24-22 17-5 29 23 38 32 4-7 5-16 6-23 0-7-4-14 0-21 7 9 4 28 3 39ZM279 353l-1 1c-5-7-8-15-14-20-6-6-15-5-13 5 1 8 11 11 16 16s3 3 3 9c0 17-5 33-4 49 1 18 4 37 12 52 7 15 18 25 24 41s11 20 28 13c7-4 19-7 24-12 5-6 4-12-3-14-14-3-31 18-45 7 7-8 13-1 8-14-4-8-9-15-10-24-2-9 2-22-1-31-2-6-3-4-10-7 8-8 8-7 7-19-1-10 1-20 4-30 1-4 5-20-1-22-1-1-6 3-8 4-5 0-9-3-13-4 13-5 24 5 18-15-3-12-4-27-19-26-4 0-14 3-17 7-2 5 0 5 3 9 6 7 7 16 12 25Zm118-214-1-1c-5 3-35 25-15 26-6 4-8 3-10 11-2 6-2 18 0 25 5 11 23 6 33 9 14 6 20 20 32 27 7 4 31 3 29-7-1-6-12-15-16-20l-14-19c-7-13-11-27-11-42 0-7 3-14-3-19-4-4-9-3-14 0-6 4-6 10-9 16s-6 9-11 14c1-7 6-14 10-20Zm-25 146 1 2c3 0 10 0 5 6-2 2-5 0-7 1-5 2-1 0-6 5-10 11-20 28-25 41-4 13-12 24-18 36-1 3 0 4-2 6s-4-2-6 2c-3 4-2 16-2 20 13-11 25-24 36-37 10-12 23-22 32-35 10-14 19-29 21-46 1-9 0-11-9-8l-20 7ZM144 413l-1-1c4-12 11-20 19-30l25-31-1-1-32 30c-5 4-13 7-16 11-4 5-1 4-1 9-1 8-10 19 3 19l23-3c5-1 9-2 13-5 2 12-16 10-24 11v1c7 2 40 15 46 7 3-3 1-16 0-19l-7-16 1-2 11 17c3 8 0 16 6 23 7-11 1-29-2-40-2-14-9-24-10-37h-1c-8 10-15 22-23 30-8 9-19 18-29 27Zm297-231c-4 14 16 33 25 41 4 3 11 11 17 9 8-3 2-10 0-14-4-12-14-18-21-29-4-6-9-13-11-20-4-9-1-19-4-27-3 2-4 4-3 7-5-1 2-17 3-21v-23c0-6 4-9-3-12 3 1-13 3-10 2-2 0-1 1-3 3-4 2-9 15-6 20 3 6 14 5 16 11l-4 4v10l2 22c-1-3-2-4-4-4 1 6 1 14 5 19 1-2-2-12-1-12l6-4 5 28-9-10Zm-145 43c-6-2-15 9-17 14-2 7 3 10 8 14 12 8 37 16 51 12 16-4 1-20-2-30-5-11-2-11-14-9-9 2-17 0-26-1Zm20 139c13-15 19-38 25-55 5-13 0-12-11-12-4-1-9 0-13-2-5-2-6-5-11-6-24-5-2 23 0 32 1 7-2 16 0 24 2 4 5 4 7 8 2 3 3 6 3 11ZM443 18c2-15-26-11-33-7-5 3-31 15-22 24 2 2 16-1 20 0 8 1 15 6 24 6 5 0 16 0 17-6 0-4-5-13-6-17Zm60 380c0-10-7-8-13-9-11-2-18-2-20 11-1 10 4 25 15 22 10-3 18-14 18-24ZM403 65c3 9 4 16 16 14 5-1 14-7 11-14-3-5-9-3-12-7-1-3 2-8 1-11-2-4-4-4-9-6-1 5 1 7-1 11-1 4-3 10-6 13Zm-24 77c3 8 12-5 16-9l13-14c-1-2-1-3 1-3l3-3 5-9c2-3 8-12 5-15-7-9-15 16-17 19-8 12-21 21-26 34Zm-63 146c6-1 13-1 17-5s5-8 1-10-18 0-24-1l-21-5c4 11 17 18 27 21ZM278 83v-1c-12 0-24 9-34 15-10 7-23 13-30 23 10 0 25-9 33-14l31-23Zm20 135c5 0 39 6 31-6-7-12-24 2-31 6ZM121 422l1-1c-4-3-5-5-6-10 7 2 9 5 13 0 3-3 5-12-1-12-4-1-16 10-17 14-3 9 4 9 10 9Zm263-147v-2c-6-4-25-21-29-7l10 3 3 5c5 3 10 2 16 1Zm127-34c-3-6-3-10-10-8-5 2-1 5-8 4 1 7 3 3 6 7-3-3 8 7 2 4 0 0 0 2 2 3 3 1 7-8 8-10ZM448 9c2 8 3 15 7 21 2 3 4 3 5 6-1-2-3 6-2 6 15-1-3-28-10-33ZM106 405l2 1c4-7 11-10 15-17-5 0-3-5-10-2-6 4-5 12-7 18Zm263 93c0 9 12 10 12 1 0-8-12-10-12-1Zm-112-85-2 1c1 13 2 25 7 38 4-4 0-12-1-16l-4-23Zm197-266c-3 15 0 23 8 28l-8-28Z" data-name="Layer 1"/>
</symbol>

<symbol fill="none" viewBox="0 0 322 376" id="soccer-icon" xmlns="http://www.w3.org/2000/svg">
<path fill="currentColor" d="M172 1c6 2 12 3 16 9 3 5 3 6-2 10 1 10 4 21-6 31l14 3c14 3 25 10 32 22l6 7 4 8c1 4 6 8 10 9 13 4 27 10 41 10l12 1c8 2 13 8 17 14 2 2 2 5 6 4v1c-10 6-19 9-30 4-9-5-18-8-29-5-10 2-19-3-28-8l-15-8c-4-1-5 1-5 4l-6 30c-2 6-1 10 2 16l10 22 14 25 5 18 4-3-3 15 13-10c5-5 21-3 26 2 8 6 11 15 15 24 5 11 3 21-7 29l-3 3c-7 9-17 10-29 9-11-1-18-7-25-15l-4-3-19-4c1 8 2 17 10 23l25 22 10 15c4 6 10 10 18 10l14 2c4 1 4 3 2 7-3 9-10 13-16 19l-6 3h-2l-12-10-4-3c-7 2-10-4-13-7-12-12-25-21-39-29-3-1-4-3-6-5l-9-16c-5-11-13-19-22-27a69 69 0 0 1-23-50v-40c1-11 2-22-1-33-2-8-6-16-10-24l-3-2-3-2-22-21-10-8c-6-4-11 1-16 1l-9 4-18 6-25 13-9 8c-1 1 1 4 1 7v3l4-1 17-15 15-11 1 2-5 5c18 1 34-6 50-11l-7 5-23 7c-6 2-14 2-21 3-6 0-8 2-9 7l-5 1-8 9c-3 4-7 5-12 4l-6-6v-2c2-8 8-12 14-17l1-1c10 0 15-8 23-12 8-5 17-7 26-8 12-2 20-10 30-15l-4 4-6 4c11 3 14 12 21 18 6 6 14 8 22 9l12 2c-1 4-5 3-7 3h-9c15 5 29 9 40 21 0 2-3 2-5 1l-10-7c-6-5-12-7-18-8l11 37 7-19 1 5-6 16-2 9-2 35c0 6 0 11 2 16 2 3 2 8 3 13 5-6 11-9 19-9l7-3c-11-3-14-14-20-21-2-2-3-6-3-9 0-5 0-10 2-14 2-6 9-9 15-8l5 2v11c0 8 3 12 11 14l16 5c6-6 10-15 19-19l1 1-18 19c12 13 23 24 29 40l-5-4-5 11-1 2 12 8c4 2 6-3 7-7 3-13 2-27-2-40s-10-25-17-36c-5-8-8-17-12-25l-1-2-7 12-2-1 7-17c2-3 3-6 1-9l-1-8c3-11-1-20-8-29l1-2c8 7 12 15 13 25l1-8 2-8c1-5 0-8-4-10l8-8 10-13 3 1-10-11-12-13c-5-3-10-5-16-5l-18 3c-7 1-13 4-19 6l-8 2c5 4 9 4 14 1l20-7v2l-7 3-15 7c-2 2-12 0-16-3-4-4-16-4-20-1s-4 7 1 9l6 2c-9 1-15-3-13-11l-10 6c3-5 8-8 13-10 8-2 17-5 26-2l4-3c3-4 3-9 0-14l-3-5c-7-11-3-19 2-29 4-7 12-9 19-11h6Zm30 269-1-3c-9-9-18-18-24-30 0-1-2-2-3-1-10 2-19 7-23 18l-1 7 5 7 22 24 4 2 4 3 7 19c3 7 9 11 16 13 0-10 5-16 13-21l-9-6h2c-1-2-1-5-3-6-7-8-10-18-14-28l5 2Zm43-31-3 8c2 8 0 15-2 22l-2 3c-4 4-3 9 2 13l2-8c3 12 4 14 15 16 9 1 18 2 25-5l5-4c5-6 9-13 7-22-1-10-7-19-15-26-9-8-17-9-27-2-4 3-4 5-2 9 4 6 0 12-1 17-1-6 2-13-4-21ZM228 87l-10 12c-2 3-1 5 1 8 8 7 18 9 27 14l8 2c7 0 13-1 20 1l28 8c3 1 7 0 10-1l1-4c-4-7-13-12-21-11h-3l-7-2-11-2c-9-4-20-4-29-9-4-3-7-5-9-9l-5-7Zm32 267-13-18c-5-7-10-13-16-18-2-3-6-6-9-6-5 0-10 7-10 14-1 6 2 10 9 12l11 6 15 12c6 4 9 3 13-2Zm-47-96c5-6 5-9 2-14l-2-4c-1-10-9-14-15-20s-15-9-24-9c-4 0-8-1-11 3 20 11 36 27 50 44ZM153 62l17-6c14-5 18-22 14-35-1-2-2-3-5-2-2 1-6 1-4 7 0 2-2 6 0 10l-2 1-3-2c-3 6-6 13-14 14l-1 2-2 11Zm13 125-7 3c-5 0-6 4-6 8s2 7 3 10l5 3c2-3 7-2 7-7l-2-17Zm11-177V9c-7-4-20-2-25 3l-1 3 4 1 7-2 15-3Zm-9 9-1-1c-2 1-5 2-6 4l-4 12 2 5 5-3 4-17Zm106 345 6-7-1-5-6 1c-3 3-2 7 1 11Zm-16-1c2 2 5 5 9 3v-6c-1-3-6-1-9 3ZM152 17c-6 3-7 14-2 18l2-18Zm48 234c2 10 5 12 9 10l-9-10Zm-36-66-1-3-9 3v3l10-3Z"/>
<path fill="currentColor" d="M135 101c10 3 26 26 23 36l-3-10c-1-6-6-10-10-15l-10-11Z"/>
</symbol>

<symbol fill="none" viewBox="0 0 316 400" id="running-icon" xmlns="http://www.w3.org/2000/svg">
<path fill="currentColor" d="m11 317 16-9c7-4 6-4 12 2-10 0-16 8-22 15-6 5-12 10-14 2-3-9 3-24 7-32 3-7 7-12 9-19 1-3 1-7 3-9 7-7 17 4 22 8 9 9 14 3 26 5 6 1 10 2 17 1 9-1 16 0 24 3l10 8 12 13c5-1 9-27 10-31 4-10 10-15 16-23l6-7c1-4-1-7-2-12-1-9 7-16 7-24-4 0-4 7-7 2l-1 2c-7-4-6-14-7-21l-5-17-11-23c-2-5-5-9-6-14-2-12 10-24 15-34 7-11 18-23 30-28 5-1 11 0 15-2 6-4 5-13 3-19-3-6-8-10-8-17-1-6 3-15 6-21 6-11 20-16 33-14 5 1 9 3 12 9 2 4 4 15 0 18-9-11-2 15-2 17-1 5-3 4-5 8-2 5-1 11-4 16-2 2-5 1-5 3-1 4 5 6 7 9 8 9 10 21 12 32 2 8 1 16 10 17 11 2 18-5 26-10 7-4 25-7 31 2l-1 12c0 7-1 7-7 10-5 2-10 1-16 1l-11 2-15 5c-6 1-14-1-20 2-13 5-10 39-4 51 3 5 9 10 13 15 7 9 15 16 19 27 4 10 5 22 7 33 3 13-4 21-6 33-2 13 7 21 9 33 1 8-1 12 7 17 5 3 10 4 16 3 3-1 10-4 13-1 7 5-7 18-11 22l5-1c-8 9-36 14-47 12-8-1-10-8-10-16v-14c0-5-3-9-4-14-4-17-8-35-5-53 2-8-2-12-10-17-3-2-21-12-23-11l-5 15c-2 6-4 9-9 13-9 7-15 16-24 25-6 6-12 15-20 18-15 5-20-5-28-14-15-20-50-24-72-22-7 0-9 0-14-5-1-1-6-6-6-8 0-3 14-9 14-13 0-3-10-4-11-3-5 1-8 5-11 9-6 8-9 18-11 28ZM191 97c0 2 4 4 4 5l-1 5c2 2 3 5 3 8 3 8 4 9 10 13 2 3 7 6 6 10-12-6-17-12-23-25-10 8-6 9-2 17 2 8 3 18 3 25 0 8-4 15-5 23 0 5 0 3 3 8 2 3 4 2 3 7-2 6-13 3-13 8 0 4 12 8 16 9s9 3 13 1c9-2 3 1 5-4 1-3-2-30-2-30 5-5 6-17 9-24l17-28c3-6 3-10 1-17-1-2-7-18-9-19-6-1-3 7-5 9-7 6-17-1-21-6-5-6-10-13-19-13-9 1-23 13-28 19-5 8-8 17-9 27 0-2 0-3-2-5-1 0-10 12-4 14-4 0 11 43 15 44-2 0 13-9 12-6 1-2-3-14-4-16l-3-10 2 1c2-8-8-11-9-17 5-1 3 2 7 0l4-11c-2-1-5 4-5 5l-1-1c3-5 7-8 12-11h-4c4-3 10-2 15-4 5-3 7-6 9-11Zm-53 220c-8-1-3 2-8-4-4-5-5-10-10-14-2-2-29-14-28-10 0 3 3 4-2 5-3 1-10-6-14-6-6 0-11 4-17 4s-12-3-17 0c-3 2-8 9-4 12 1 1 10-2 11-3a83 83 0 0 1 70 13l13 11c3 3 8 11 12 12 8 1 22-16 27-20 3-4 22-24 19-29 1 2-31 2-31 1-3 4 1 23-7 24-5 1 1-8 1-10 3-9 4-17-7-21-3 9-14 26-8 35Zm123-26c-5-1-14-7-13 2 0 3 4 5 4 7 0 4-2 3-3 5-2 7-4 14-3 22 2 7 7 14 10 22 1 4 0 32 12 23 2-2 4-12 5-15 0-7-5-15-7-21-3-9-4-16-2-26l6-24c2-6-3-9-5-14l-7-18c-3-7-5-11-14-10-4 1-13 6-12 12 1 3 25 14 13 14 3 9 8 16 16 21Zm-68-42c9 9 18 21 31 25 0-5 4-11 3-15 0-5-4-9-7-13-5-8-15-27-25-20l-1-1c3-2 10-5 8-8l-24-9-4 19c0 6 1 18 9 19-3-2-5-10-6-14l1-11 8-6c1 7-3 11-2 19 2 6 5 18 11 21l-2-6Zm25-13c1 2 8 17 11 17 2 0 6-10 9-12 4-2 8 0 12-1-3-9-15-25-24-28-4-2-14 0-18 3-3 2-5 6 1 6-4 0 11 14 11 15h-2Zm-40 51c7-3 29-7 24-18-2-4-16-17-21-16-4 0-12 14-16 19-10 13 1 13 13 15Zm77 95c1 15 16 11 28 8 3-1 33-12 26-20l-17 1c-4 0-16-5-18-4-3 2-1 8-4 9-2 2-2 0-3 0-7 2-12-4-12 6ZM229 32c0-5-6-12-9-9-4 3-2 11-6 14-1 1-6-2-9 1-3 2-2 5-2 8 0 2 1 11 4 12 2 1 4-2 5-2 4 1 9 10 13 4 3-3-2-6 0-9 1-2 6-1 7-3 3-8-12-9-14-12-2-8 11 2 11-4Zm-44 119c-1-5 0-24-6-26s-14 8-14 13c1 6 7 16 9 22 2 5 4 14 7 17l4-26Zm51-14v-1c-9 13-18 28-21 43 0 5-4 23 0 27 4 6 5-1 7-2 4-4 4 5 4-5l-1-18c1-15 6-31 11-44Zm11 13c5 0 24 0 27-5 1-1 0-6-1-7-2-6-4-4-9-4-4 0-19 0-22 2-1 1-5 10-4 12 1 3 7 2 9 2ZM198 49h1c-1-4-3-8-2-12l4-1 6-5c6-3 4 4 9-3-1 1-1-4-1-4 0-4 4-3 1-6-5-3-15 15-16 17 1-20 17-18 30-19-1-8-11-10-17-8-7 4-10 17-17 19l-1-1c-10 2 1 19 3 23Zm-29 198c-7 1-14 14-18 20-1 1-4 6-3 8 0 2 7 7 8 6l5-9 7-9c6-6 9-11 1-13v-2Zm7-56c0-7 3 0 6-1-4-7-11-14-17-8-3 2-6 16-4 20 3 5 9-1 7-2 2-2 9-5 8-9Zm34-114c-2-3-2-17-8-11-4 4 2 17 5 20 24 22 11-17 4-13l-1 4Zm72 52c2 2 11 12 15 12 10 0 8-18-2-18v6l-3 3-10-3Zm-57 145c1 1 5 6 7 6 3-1 1-1 3-4 2-1 5-6 4-8l-8-7c-2 1-5 11-6 13Zm17-3c-6 6-5 22 4 18 7-3-2-13-4-18Zm-57-160-14 5c-1 0-5 10-4 11 3 2 17-15 18-16ZM27 269c-2 0-7 4-4 7l6-2c-1 2-3 2-3 4 9 1 12-10 1-9Zm247-141c-1 1 5 9 5 12 9-4 1-9-5-12Zm16 0h1c-4-5-10-10-14-2l13 2Zm-91 161c-4-3-8 8-9 11 5-1 8-7 9-11Zm19-220c-1-3-2-8-5-9-3 4 0 9 4 12l1-3ZM64 288c-6-1-12-3-18 2 5 1 13-1 18-2ZM197 16h1l9-8c-4 0-8 5-10 8Z"/>
<path fill="currentColor" d="m209 163 1-16c1 2 1 4 3 5-2 3 0 1 0 3l-4 8Z"/>
</symbol>

<symbol fill="none" viewBox="0 0 220 451" id="volley-icon" xmlns="http://www.w3.org/2000/svg">
<path fill="currentColor" d="M110 359c-11 16-26 27-37 41-5 6-6 14-4 22 3 8 1 16-1 24-2 4-8 4-11 3-6-1-12-4-13-12-1-6-3-13-2-20 1-5-3-8-5-12-4-7 0-15 7-17 14-2 20-12 24-24 3-12 9-22 19-28s9-17 13-26c5-16 7-31 2-48-4-16 6-27 17-36 7-6 7-12 4-18-3-8-5-16-4-24 0-4-2-6-5-7s-4 3-4 5c-4 12-9 24-3 37 4 10-5 16-10 22-2 1-5 2-4 5 0 2-3 2-4 1-7-7-11-14-7-24 7-23 9-47 7-72-1-7 3-15 0-22 0-2 1-2 2-2h3c0-6 8-9 7-16 0-4-2-7-8-4s-7 8-8 14c0 8-3 13-10 17l2-13q-10 13-4 15c-2 2-4 1-5 0-2-2-2-5-1-8 3-7 8-13 9-21 1-6 1-12-2-19-3-4-1-9-1-14 1-3 5-5 2-7-4-4-7-7-14-8-12-2-23 2-35 2-5 1-22-11-24-15v-2c6-9-1-19 2-29C7 8 16 2 28 2c11 1 18 8 20 19 1 7 1 13-6 18l25 2c11 1 22 3 30 11 5 6 10 10 17 12 9 4 10 15 13 23v1c-11 12 1 19 6 27s9 15 8 24c10-11 4-29-10-32-1-1-4-1-3-3 0-2 3-2 4-2 9 3 19 5 27 11 7 6 9 17 6 24-3 10-1 20 2 28 7 17 7 35 11 51 3 10 5 18 12 26 11 11 19 25 22 42l6 24c2 13-5 21-18 22-15 2-30 2-44 10-12 7-21 17-22 32 0 4 2 6 3 9 0 2 2 3 0 5s-3 3-6 2c-12-2-18-11-21-29Zm55-128c-2 3 2 7 4 10l8 11c4 6 8 14 17 11-2-5-22-36-26-32 2-2-1-4-1-5 1-4 4 0 4-3 0-2-2-3-4-4-6-2-13-3-20-2-3 1-3-1-4-3-1-3 2-2 3-2 8-3 15 0 23 2 0-4 1-8-3-9-17-3-37-9-36 21 9 4 22-3 29 7-1 0-4 0-6-2-4-3-7 0-9 3-6 7 0 13 0 20 0 2 0 5 3 6l1-5c0 9 1 18 8 24 3 2 5 4 7 0 4-7 10-11 17-14 3-1 4-2 1-5-7-6-14-13-17-23-1-2-2-4 1-6Zm-61 114c-4 7-10 13-13 21-2 4-5 8-8 10-4 3-5 8-8 14 5-3 9-6 12-10 7-9 13-18 21-26 2-2 1-5 0-7s-1-4-4-2c-3-11-2-16 8-17 8-1 8-1 4-8l1-2c7-8 12-17 10-29l3 4c0-2 3-4 1-6-3-3-18-1-20 4l-8 30 5-2c-6 9-12 16-19 22-16 13-17 37-33 50l-10 10 2-6c-6 4-4 8-2 12 3 4 5 9 6 14 2 7 0 15 5 21 1 1 2 3 4 2 2 0 2-2 2-3 0-12 1-25-4-36l1-3c5 8 6 2 8-2 5-11 7-23 18-30l2-3c3-9 7-17 16-22Zm98-61c0-6-2-10-4-15-1-2-2-2-4-2l-1 1c1 4-1 3-3 2-2-2-4-2-6-1-12 3-18 13-22 23l1 5c4 3 8 6 13 7 2 1 5 1 6 3 0 4-3 2-5 3l-7 3c-19 4-34 15-49 27-6 5-5 13-6 20-2 8 8 23 17 22-1-1-3-1-3-3-5-6-10-12-4-21 5-8 12-10 18-15 18-14 38-20 60-20 4 0 5-1 4-4l-4-22c0-3-2 0-4-2 0 0 5 0 1-2-2-2-2-7-2-10 0-2 2 1 4 1ZM89 70c2 8 3 16 8 23 3 3 9 6 8 13 0 0 0 5 3 3s9-3 8-7l-13-32c-8-17-32-29-49-25-10 3-18 1-26-3-4-1-8-2-10 1-2 5 2 9 5 11s7 2 10 0c4-3 8-3 11 0 5 3 9 2 14 2 9-2 17-1 23 8 1 1 3 4 5 3 8-4 2 3 3 3Zm43 187c-1-8 0-15-2-22-1-2 0-6-2-5-3 1-8-2-10 3s-5 10-6 16c-2 10 1 20 0 30-1 1 1 3 2 2 5-2 11-1 12-7l4-9c0 6-3 10-5 14 7 3 13 4 12-7l1-4c2-5-1-8-2-12 0-2-3 1-4 1Zm17-138c0 9-1 17-5 23-4 5-5 13-14 13-11-1-14-8-19-16-1-2-1-5-5-4 7 10 10 23 18 33 2 4 6 5 9 5 6-2 25-25 24-31-1-8-3-15-8-23ZM26 6c-9 0-15 4-17 12-1 4 1 8 1 12 1 3 0 7 3 7 4 0 9-1 11-3 4-4 9-7 14-8 2 0 5 0 5-3 0-8-9-17-17-17Zm99 115c-3-2-3-4-4-7-1-2-1-8-5-6-3 1-8 3-6 10 1 8 6 15 9 22s9 8 15 7c8 0 3-6 3-9 1-7-1-13-6-19-2-2-2-6-5-5s1 4-1 7Zm2 209 3-2c11-7 20-18 35-19l2-2-2-3c-6-3-10-8-14-13-3-4-5-3-7 0-7 11-12 23-20 33-1 2-1 5 3 6Zm-1-143 2 11c0 2 1 3 3 2 10-7 21-7 33-5 1 0 3 1 3-2 1-10-8-15-10-24h-3c-6 3-11 7-15 11-3 4 3 5 1 8l-1 2c-3-9-9-2-13-3Zm-28-52c-2 1-2 3-3 5-4 22 4 45-5 67-1 3 3 3 4 4s3 0 4-1c3-8 0-17 4-24 1-1 0-3-1-3-3-2-1-3 0-5 3-5 6-9 3-16-2-6-8-12-2-19 1-2-1-6-4-8Zm0 89c-4 4-11-4-12 4-1 3 1 8 6 7 6 0 5-6 6-11Zm41 67c-8 7-11 15-11 25 5-8 9-15 11-25ZM113 77l6 13c2 2 5 0 5-2 2-6-6-12-11-11ZM91 221c4 0 7-2 7-5 0-4-5-1-7-3-2-1-3 1-3 3s0 5 3 5Z" data-name="Layer 1"/>
</symbol>

<symbol fill="none" viewBox="0 0 513 506" id="placeholder" xmlns="http://www.w3.org/2000/svg">
<path fill="currentColor" d="M301 48a876 876 0 0 0 15 14c13 17 35 45 35 67h3c21-1 44 5 63 14l2 1c17 8 32 18 45 31l3 2a166 166 0 0 1 42 154c-6 22-16 43-31 61l-2 3a152 152 0 0 1-32 30c-18 14-40 22-63 26-7 2-12 4-18 9-25 18-53 31-84 39l-2 1a244 244 0 0 1-70 5 231 231 0 0 1-147-49c-31-22-31-22-34-34 0-7 1-14 5-19 6-8 14-14 21-21l4-4c15-13 31-24 47-34l-1-1c-45-24-79-60-94-109A182 182 0 0 1 85 27l3-2c18-12 40-18 61-22l4-1c54-9 108 10 148 46ZM177 19c0 40 15 79 41 109l14-12 2-2 5-6 4-4 11-11 11-11 21-21c-1-4-3-5-6-8l-2-1c-29-21-65-35-101-33ZM72 60a242 242 0 0 0 27 28l9 8a37952 37952 0 0 0 70 71l10-7 1-2 5-5 3-3 8-8-5-8c-27-34-37-72-41-114-30 0-65 19-87 40Zm223 17-2 2-2 2-6 7-5 4a16855 16855 0 0 0-48 48c2 4 5 6 8 9l2 1 14 9 3-2c22-14 47-23 73-27 0-5-2-10-4-15l-1-2c-6-12-13-23-22-34l-1-2-4-4c-2 0-3 3-5 4ZM57 75a155 155 0 0 0-18 25c-10 17-20 40-20 60h3c16 2 32 4 47 8l3 1c21 5 40 16 57 29l3 2 7 6 10-7a2015 2015 0 0 1 6-7l3-3 8-8-15-17-3-3-8-8-5-5a25843 25843 0 0 0-68-68l-3-2-2-3c-2-2-3-2-5 0Zm254 77-1 7a12047 12047 0 0 0 34 24l8 3a187 187 0 0 0 15-11l2-1 13-9 2-2 6-4c1-3 1-3-1-6-22-11-54-8-78-1Zm-95 4a1136 1136 0 0 0-11 11l-3 4-10 9 14 15 2 2 5 5 9-10a239 239 0 0 1 18-21l-1-2-17-13c-3-3-3-3-6 0Zm31 34-2 2-9 11 2 1 3 1 2 1c5 4 7 12 9 18l2 4a1309 1309 0 0 1 5 14l1 2c2 5 4 7 10 9l9 4 6 3 4 2 4 1c4 1 5 1 8-1l9-6 3-2a2680 2680 0 0 0 14-9l5-3 2-2 3-2 2-1 2-2c3-18 3-18-1-36l-16-10a2684 2684 0 0 0-28-19l-2-1c-3-3-3-5-4-9-14 0-33 21-43 30Zm163-29-1 3a12781 12781 0 0 0-50 38c-3 10-5 22-1 32 5 8 14 13 22 18a6364 6364 0 0 0 13 8l10 2 3-1 5-1c8-3 15-5 19-12s5-15 7-24l3-9a657 657 0 0 0 6-24l5-2c-3-5-7-8-12-12l-2-2c-8-5-17-11-27-14ZM18 178c-1 33 9 65 27 92l2 3 11 14c5-2 8-5 11-8l2-2 6-7a9953 9953 0 0 1 16-15l11-12 23-23a154 154 0 0 0-109-42Zm158 18-3 3-2 2-5 5-4 4-9 9 8 10c11 14 19 30 26 47 3-3 3-6 4-10 2-15 5-30 13-43 1-3 0-4-1-6l-5-6-1-1a686 686 0 0 0-11-11l-2-2c-4-4-4-4-8-1Zm283 11-9 32-1 4-1 3-1 3-1 5 4 3 2 1 3 2a5332 5332 0 0 1 23 15l2 2 10 4 4-3c-3-24-9-54-27-71h-8Zm-234 11c-11 21-20 43-19 68l6 3a2336 2336 0 0 0 30-29l2-2c2-2 2-2 1-5a215 215 0 0 0-9-25l-2-4c-2-4-4-5-9-6Zm-90 19-2 2-2 2-6 6a9525 9525 0 0 1-48 48c-4 3-4 3-5 7l6 4 2 2c11 8 23 15 35 21l3 1 3 1 2 1c6 2 13-1 19-3l33-9 4-1c0-29-16-59-34-81l-2-3-2-2c-3 0-4 2-6 4Zm211 16-3 2-2 2-3 2a8491 8491 0 0 0-29 19l4 12v3l9 32h55l6-16 1-3a2110 2110 0 0 0 4-16l1-2c1-4 2-7 0-11l-3-3-3-2-2-1-3-2-8-5a5408 5408 0 0 1-18-12c-3-2-4 0-6 1Zm-89 16-2 2-3 3-2 2-3 3-10 11-8 7-2 3-3 2-2 2c-2 3-4 4-8 4l-8-1 2 10h3a270 270 0 0 1 96 19 3761 3761 0 0 0-8-32l-3-10-1-3-1-4v-3c-3-5-8-6-13-8l-4-1-1-1-6-2c-7-4-7-4-13-3Zm152 10c-4 6-5 13-6 20l-3 10v2a3735 3735 0 0 1-4 13l-1 3c-1 4 1 6 3 9 5 7 10 14 19 16h25a529 529 0 0 1 22 0c9-1 9-1 13 2l2 3c9-18 16-39 15-59l-3 1c-8 1-12-2-19-6a5600 5600 0 0 1-31-22c-9-6-23 1-32 8Zm-240 60h-2c-44 10-79 35-112 65l-2 2-9 11c1 6 6 9 10 13a334 334 0 0 0 53 35l2 1c16 8 32 13 49 17h3a234 234 0 0 0 59 4c19 0 38-1 56-6l3-1a209 209 0 0 0 82-41 1440 1440 0 0 1 12-9l2-2 2-1 2-2 4-7c-1-7-9-13-15-18l-7-6a234 234 0 0 0-108-56l-2-1c-26-5-56-4-82 2Zm152 4 9 6a245 245 0 0 1 51 40l3 2a1291 1291 0 0 0 12-22l1-3c2-3 2-3 1-5-5-8-11-16-21-19h-35l-21 1Zm94 26v2l-4 7-2 2-9 19c-2 3-3 5-2 8l1 4 1 8-1 3v5l19-8 2-1c7-4 13-7 18-12l3-2 23-22 2-3c2-3 2-3 1-6l-3-4h-49Z"/>
<path fill="currentColor" d="M140 385c5 3 5 3 6 6v11h16v-6c0-4 0-6 2-9 5-3 7-3 11-2 3 2 4 3 5 7v10h16v-6c0-4 0-6 2-9 5-3 7-3 11-2 3 2 4 3 5 7v10h16v-6c0-4 0-6 2-9 5-3 7-3 11-2 3 2 4 3 5 6v11h16v-5c0-4 0-7 2-10 4-3 7-3 11-2l5 5v12h3c9-1 9-1 13 2 2 4 2 6 1 10-2 3-3 5-7 6h-10l1 2c0 8 0 8-2 12-3 3-6 3-10 3-3-1-4-2-6-5l-1-12h-16l1 5c0 4 0 6-2 9-3 3-6 3-10 3l-7-6v-11h-16l1 5c0 4-1 7-4 10-2 2-4 2-7 2-4-1-5-2-8-5v-12h-16l1 4c0 4-1 7-4 11-2 2-4 2-7 2-4-1-5-2-8-5v-12h-16l1 4c0 4-1 7-4 11-2 2-4 2-7 2-4-1-5-2-8-5v-12h-2l-12-1-4-9c2-4 3-6 6-8h7a8056 8056 0 0 1 5 0v-3c0-8 0-8 2-12 4-3 6-3 10-2Z"/>
</symbol>>

</svg>